<?xml version="1.0" encoding="utf-8"?>
<!-- Generator: Adobe Illustrator 25.2.1, SVG Export Plug-In . SVG Version: 6.00 Build 0)  -->
<svg version="1.1" id="Layer_1" xmlns="http://www.w3.org/2000/svg" xmlns:xlink="http://www.w3.org/1999/xlink" x="0px" y="0px"
	 viewBox="0 0 500 425" style="enable-background:new 0 0 500 425;" xml:space="preserve">
<style type="text/css">
	.st0{fill:#FF9566;}
	.st1{fill:#FFDF97;}
	.st2{opacity:0.6;fill:#843131;}
	.st3{fill:#895D6B;}
	.st4{fill:#492E35;}
	.st5{fill:#7A5661;}
	.st6{fill:#D8D0BF;}
	.st7{fill:#84474C;}
	.st8{fill:#682F36;}
	.st9{fill:#512029;}
	.st10{fill:#F4C76E;}
	.st11{fill:#FFA33E;}
	.st12{fill:#FF822E;}
	.st13{fill:#FFB882;}
	.st14{fill:#E85684;}
	.st15{fill:#5FB4D6;}
	.st16{fill:#47A3BF;}
	.st17{fill:#D33C31;}
	.st18{fill:#BA2925;}
	.st19{fill:#EA7B59;}
	.st20{fill:#FFFBDD;}
	.st21{fill:#3F7FA5;}
	.st22{fill:#4F3735;}
	.st23{opacity:0.6;}
	.st24{fill:#843131;}
	.st25{fill:#491D2E;}
	.st26{fill:#FFEBEB;}
	.st27{fill:#563B36;}
	.st28{fill:#8C3B3F;}
	.st29{fill:#58B6CC;}
	.st30{fill:#BC2824;}
	.st31{fill:#A01818;}
	.st32{fill:#FFB640;}
	.st33{fill:#FFECC7;}
	.st34{fill:#FF8E31;}
	.st35{fill:#763224;}
	.st36{fill:#D3583C;}
</style>
<g>
	<path class="st0" d="M228.5,198.9c1.1,2.1,1.5,4.7,1.5,4.7l2.5-0.9l-1.7-4.3L228.5,198.9z"/>
	<g>
		<path class="st0" d="M232.3,193c0.1,2.7-0.2,4-0.1,4.6c0.1,0.7,0.1,2.8,1,3.2c0.9,0.4,5.1,0,4.8-1.1c-0.2-1.1-2.7-3.7-4.4-6.7
			C232.5,191.1,232.3,193,232.3,193z"/>
		<path class="st0" d="M232.6,199c0.1,1.8,0,7.1,0.5,7.5c0.5,0.4,1.3-6.8,1.3-6.8L232.6,199z"/>
		<path class="st0" d="M234.4,199.6c0.7,1.7,0.7,5.8,1.4,6.1c0.7,0.3,0.7-5.7,0.7-5.7L234.4,199.6z"/>
		<path class="st0" d="M234.9,198.5c1.3,1.3,2.5,5.7,3.4,5.8c0.9,0.1-1.1-6.1-1.1-6.1L234.9,198.5z"/>
	</g>
	<path class="st1" d="M310.5,223c-4,1.7-9.8,9.9-19.9,34.6l30.6-0.6C324.5,227.9,314.4,221.3,310.5,223z"/>
	<path class="st2" d="M310.5,223c-2.8,1.2-6.5,5.6-11.9,16.6c4.1-0.2,9.2-2,14.1-5.2c2.4-1.5,4.5-3.3,6.3-5
		C316.3,223.5,312.5,222.1,310.5,223z"/>
	<path class="st3" d="M352.6,295.5c0,0-43.9,35.2-71.9,79l1.6,0.4c33-42.6,84-80.4,84-80.4L352.6,295.5z"/>
	<path class="st4" d="M336.7,318.6c16.8-14.7,29.5-24.1,29.5-24.1l-13.7,0.9c0,0-11,8.8-25.5,23.1H336.7z"/>
	<path class="st3" d="M266.1,275.9c0,0,34.3,55.3,95.5,105.2l1.9-0.9C307.8,327.6,274,265.6,274,265.6L266.1,275.9z"/>
	<path class="st4" d="M309.4,319.1c-22.7-30.2-35.4-53.5-35.4-53.5l-7.9,10.3c0,0,11.3,18.2,32.5,43.2H309.4z"/>
	<path class="st5" d="M368.3,379.3c0-4.4-3.6-8-8-8c-4.4,0-8,3.6-8,8c0,4.4,3.6,8,8,8C364.7,387.2,368.3,383.7,368.3,379.3z"/>
	<circle class="st5" cx="280.8" cy="379.3" r="8"/>
	<path class="st6" d="M285,379.3c0-2.3-1.9-4.2-4.2-4.2c-2.3,0-4.2,1.9-4.2,4.2c0,2.3,1.9,4.2,4.2,4.2
		C283.1,383.4,285,381.6,285,379.3z"/>
	<path class="st6" d="M364.5,379.3c0-2.3-1.9-4.2-4.2-4.2c-2.3,0-4.2,1.9-4.2,4.2c0,2.3,1.9,4.2,4.2,4.2
		C362.6,383.4,364.5,381.6,364.5,379.3z"/>
	<path class="st7" d="M147.5,147.4c35.6-5.5,53.3-16.8,54.5-36.4c1.2-19.6,13.4-45.4,2.1-58.2c1.6-16.1-26.1-22.7-42.9-5.3
		c-25,26-6,53.9-6.6,70.2C154.1,133.9,147.5,147.4,147.5,147.4z"/>
	<path class="st8" d="M208.3,73.2c-8.4,7.8-24.5,4-35.9-8.4c-5.3-5.7-8.6-12.3-9.9-18.5c-0.4,0.4-0.8,0.8-1.2,1.2
		c-25,26-6,53.9-6.6,70.2c-0.6,16.3-7.2,29.8-7.2,29.8c35.6-5.5,53.3-16.8,54.5-36.4c0.7-11.9,5.5-26,6.6-38.2
		C208.5,72.9,208.4,73.1,208.3,73.2z"/>
	<path class="st9" d="M187,85c-11-4-15.7,9.3-22.6,26.3c-7.7,19-16.9,36.1-16.9,36.1c30.3-4.7,47.6-13.6,52.8-28.2
		C202.1,102.7,197.3,88.7,187,85z"/>
	<path class="st1" d="M210,197.4C212.9,238.7,185,374,185,374h-1c0,0-1.5-138.3-1.1-143.5c0.4-5.2,9.6-27.9,9.6-27.9L210,197.4z"/>
	<path class="st10" d="M195.5,228.4c0.5-4.3,1.1-20.8,3.9-27.9l-7,2.1c0,0-10.4,21.5-10.8,26.8C181.2,234.6,184,374,184,374h1
		c0,0,0.1-0.6,0.3-1.6C186.4,339,195,233.2,195.5,228.4z"/>
	<path class="st1" d="M114.6,316.8c0,0,60.6-30.7,65.3-36.2c3.5-4.1,14.1-46.7,14.1-46.7l8.5-3.7l3.1-36.1c0,0-16.2-10.2-36.5,2.3
		c-10.2,29.9,0.9,75.4-2.1,80.1L114,315.9L114.6,316.8z"/>
	<path class="st10" d="M114,315.9l0.5,0.9l56.7-37.8c3.1-4.7-7.3-45.6,2.9-75.5c23.2,1.9,30.6-0.2,36.1-1.6l0-6.5
		c0,0-23.2-11.5-43.6,0.9c-10.2,29.9,0.7,74-2.3,78.7L114,315.9z"/>
	<path class="st11" d="M205.7,164.2c-10.1-11.4-17.2-38-17.6-47.3c-0.2-5.3,3-7.8,7.6-2.2c4.6,5.6,11.8,33.6,17.4,41.1
		C217.2,161.3,205.7,164.2,205.7,164.2z"/>
	<path class="st12" d="M212.6,157.4c-5.6-7.5-13-35.3-18.6-40.2c-3.8-3.4-4.6-4.8-5.8-2.6c-0.1,0.7-0.2,1.4-0.2,2.3
		c0.4,9.3,7.5,35.8,17.6,47.3c0,0,5.9-1.5,7.7-4.3C213.4,159.1,213.2,158.3,212.6,157.4z"/>
	<path class="st4" d="M207.9,165.7c-5.6-0.3-8-6.8-7-10.8c1-3.9,7.1,1.8,7.1,1.8C212.1,160.9,213,166,207.9,165.7z"/>
	<path class="st4" d="M214.8,158.7L212,154c-5.3-1.4-7.6,0.5-9.7,4.6l3.3,3.7L214.8,158.7z"/>
	<path class="st13" d="M234.5,197.4c-17-14.9-28.4-32.1-28.9-35.7c-0.4-3.6,3.3-7.8,7.7-4.3c4.4,3.5,21.7,38.5,21.7,38.5
		L234.5,197.4z"/>
	<path class="st0" d="M208.1,160.4c-0.1-1.7,0.8-3.3,2.3-4.3c-3.3-0.4-6,2.6-5.7,5.4c0.4,3.6,12.8,21,29.8,35.9
		C234.5,197.4,208.4,163.9,208.1,160.4z"/>
	<path class="st11" d="M211,198.7c-5.6,5.5-34.8,0.6-43.6-0.9c-1.4-0.2-2.3-1.6-2-2.9c3-13.2,19.5-23.6,9.9-57.1l20.8,12.4
		C204,168.2,211.3,187.9,211,198.7z"/>
	<path class="st12" d="M196.4,169.4c3.2-0.6,6.5,1.6,9.5,5.8c-2.7-8-6.2-16.7-9.8-25l-20.8-12.4c9.5,33.4-6.9,43.9-9.9,57.1
		c-0.3,1.4,0.6,2.7,2,2.9c4.1,0.7,12.8,2.2,21.4,3C186.2,184.6,189.6,170.7,196.4,169.4z"/>
	<path class="st11" d="M171,114.8c-2.4,6.5,14.6,45.2,17.6,45.8c3,0.6,18.5-2.6,19.6-5.8c1.1-3.2-14.3-42.4-17.9-43.4
		C186.7,110.4,172.1,112.1,171,114.8z"/>
	<path class="st12" d="M194.2,156c-2.9-0.6-12-33.8-23.1-41.2c-2.4,6.5,13.9,45.9,16.9,46.5c3,0.6,19.2-3.4,20.3-6.5c0,0,0,0,0,0
		C203.2,157.4,196.5,156.5,194.2,156z"/>
	<path class="st14" d="M190.7,111.6c-0.1-0.1-0.3-0.2-0.4-0.2c-2.3-0.6-9-0.2-13.9,0.9c3.1,4.8,8.2,7.4,11.6,5.8
		C190.2,117.2,191.1,114.6,190.7,111.6z"/>
	<path class="st13" d="M188.8,111.6l-2.2-21.2L174.2,87c0,0,2.2,11.3,3.4,25.2c0,0,3.8,4.7,8.4,4.7
		C190.5,116.9,188.8,111.6,188.8,111.6z"/>
	<path class="st4" d="M189,169.1c-5.6-0.3-8-6.8-7-10.8c1-3.9,7.1,1.8,7.1,1.8C193.2,164.3,194.1,169.4,189,169.1z"/>
	<path class="st11" d="M188.6,166.4c-11.9-11.3-18.6-38.1-18.9-47.3c-0.2-5.3,3-7.5,7.5-1.5c4.5,6,10.4,31.4,17.5,41.6
		C198.5,164.8,188.6,166.4,188.6,166.4z"/>
	<path class="st12" d="M194.7,159.2c-0.4-0.6-6.3-0.1-6.3-0.1c-10.3-9.8-16.7-31.3-18.5-42.9c-0.2,0.8-0.3,1.7-0.3,2.8
		c0.4,9.3,7.1,36,18.9,47.3C188.6,166.4,198.5,164.8,194.7,159.2z"/>
	<path class="st4" d="M196.7,161l-2.9-3.2c-5.3-1.4-8.3,0.1-10.3,4.2l3.3,3.7L196.7,161z"/>
	<path class="st13" d="M226.9,199.8c-18.5-12.9-39-31.8-39.8-35.2c-0.8-3.4,3.9-7.6,8.6-4.7c4.7,3,31.5,38.4,31.5,38.4L226.9,199.8z
		"/>
	<path class="st0" d="M191.6,164.8c-0.5-2.1,0.9-4.4,3.1-5.3c-4.3-1.8-8.3,2.1-7.6,5.2c0.8,3.4,21.2,22.3,39.7,35.2l-2.9-2.9
		C206.8,183.4,192.3,168,191.6,164.8z"/>
	<path class="st15" d="M254.6,235.5l71.5,5.3l27-78.7c0,0,73.4,30.6,32.7,109.5C354.2,332.9,254.6,313.5,254.6,235.5z"/>
	<path class="st16" d="M326.4,240.1c0,0-50.4-2.5-71.8-1.7c2.5,75.5,100,93.6,131.1,33.2c9.5-18.3,12.7-34.1,12.2-47.4
		C383.7,236.9,326.4,240.1,326.4,240.1z"/>
	<polygon class="st16" points="328.2,244.7 358.4,164.8 353.3,161.7 326.3,243.2 	"/>
	<path class="st4" d="M289.9,381.7c0.7-1.3,1.2-2.9,1.2-4.5c0-5.2-4.2-9.4-9.4-9.4c-4.1,0-7.5,2.6-8.8,6.2L289.9,381.7z"/>
	<path class="st4" d="M369.5,375.6c-0.5-1.6-1.3-3.1-2.5-4.3c-3.9-3.9-10.3-3.9-14.2,0c-3.1,3.1-3.7,7.7-1.9,11.4L369.5,375.6z"/>
	<polygon class="st5" points="255,238.2 235.2,202.7 236.6,201.2 262.8,237 	"/>
	<path class="st1" d="M229.1,202.7c0,2.2,1.8,4,4,4c2.2,0,4-1.8,4-4c0-2.2-1.8-4-4-4C230.8,198.7,229.1,200.5,229.1,202.7z"/>
	<path class="st1" d="M326.6,242.3l28.9-78.3c0.5-1.4-0.2-2.9-1.6-3.4l0,0c-1.4-0.5-2.9,0.2-3.4,1.6l-25.9,78.6L326.6,242.3z"/>
	<polygon class="st1" points="326.6,239.2 252.5,233.9 253.6,239.1 326.1,241.4 	"/>
	<g>
		<path class="st17" d="M318.4,222.7c10.1-5.5,13.1-10.3,10.1-13.9c0,0,1.1-7-1.2-9c0,0,0.9-6.9-5.2-6.7c0,0-0.7-6.3-4.1-6.5
			c-3.3-0.3-7.2,2.2-7.2,2.2s0.2-3.4-3.9-2.1c-3.8,1.2-4.5,3.9-4.5,3.9s-3.7-0.8-6,1.8c-2.3,2.5-1.8,4.6-1.8,4.6s-1.4-0.8-3.4,2.8
			c-1.9,3.4,3.5,9,3.5,9L318.4,222.7z"/>
		<path class="st18" d="M308.9,204.4c6-5.2,8.6-12.4,7.1-17.7c0.6-0.1,1.3-0.2,1.9-0.1c3.5,0.3,4.1,6.5,4.1,6.5
			c6.1-0.1,5.2,6.7,5.2,6.7c2.3,2,1.2,9,1.2,9c3,3.6,0,8.4-10.1,13.9l-21.8-12.9C300.7,209.5,305.1,207.7,308.9,204.4z"/>
		<path class="st13" d="M323.9,213.3c-0.9,10-10.6,16.1-20.6,13.1c-11.3-3.4-13.1-10-12.6-18.3c0.3-4.7,10.2-15.1,17.7-13.3
			C315.9,196.7,324.8,204.1,323.9,213.3z"/>
		<path class="st18" d="M321.6,216.2c1.3-7.3-9.6-15.5-6.6-19.4c3-3.9,10,5.6,10.9,10.2C326.9,211.6,321.6,216.2,321.6,216.2z"/>
		<path class="st13" d="M323,217.3c5.5-2.5,6-4.3,4.1-6.8c-1.9-2.5-4.7-0.8-5.9,6.3C321,218.7,323,217.3,323,217.3z"/>
		<path class="st19" d="M323.7,216c3.5-1.6,3.8-2.7,2.6-4.4c-1.2-1.6-3-0.5-3.8,4C322.4,216.9,323.7,216,323.7,216z"/>
		<path class="st13" d="M323.1,216.7c2.5-1.1,2.7-1.9,1.9-3.1c-0.8-1.2-2.1-0.3-2.7,2.9C322.2,217.3,323.1,216.7,323.1,216.7z"/>
		<g>
			<path id="XMLID_178_" class="st20" d="M307.8,209.7c0.5-1.7,2.1-2.8,3.6-2.4c1.5,0.4,2.3,2.1,1.9,3.9c-0.5,1.7-1.8,2.1-3.3,1.7
				C308.4,212.4,307.3,211.4,307.8,209.7z"/>
			<path id="XMLID_177_" class="st21" d="M308.2,208.9c0.2-1,1-1.6,1.8-1.5c0.8,0.1,1.4,1,1.3,2c-0.2,1-1,1.6-1.8,1.5
				C308.6,210.7,308,209.8,308.2,208.9z"/>
			<path id="XMLID_176_" class="st20" d="M308.5,208.3c0.1-0.4,0.4-0.6,0.7-0.6c0.3,0,0.5,0.4,0.5,0.8c-0.1,0.4-0.4,0.6-0.7,0.6
				C308.6,209,308.4,208.7,308.5,208.3z"/>
			<path id="XMLID_175_" class="st20" d="M296.8,208.2c0.2-1.6,1.5-2.6,2.9-2.4c1.4,0.3,2.3,1.8,2.1,3.3c-0.2,1.6-1.4,1.9-2.7,1.7
				C297.6,210.6,296.6,209.8,296.8,208.2z"/>
			<path id="XMLID_174_" class="st21" d="M297.2,207.4c0-0.9,0.7-1.5,1.4-1.5c0.8,0,1.4,0.8,1.4,1.6c0,0.9-0.7,1.5-1.4,1.5
				C297.8,209,297.2,208.3,297.2,207.4z"/>
			<path id="XMLID_173_" class="st20" d="M297.4,206.8c0-0.3,0.3-0.6,0.6-0.6c0.3,0,0.5,0.3,0.5,0.6c0,0.3-0.3,0.6-0.6,0.6
				C297.6,207.4,297.4,207.2,297.4,206.8z"/>
			<path id="XMLID_172_" class="st19" d="M302.6,213.6c0.7-0.4,1.7-0.3,1.7-0.3l-0.9,2.4C301.8,215.6,301.7,214.1,302.6,213.6z"/>
			<path id="XMLID_171_" class="st13" d="M303,213.8c0.6-0.3,1.3-0.3,1.3-0.3l-0.7,2C302.4,215.3,302.3,214.2,303,213.8z"/>
			<path class="st22" d="M301.2,218.4h6.1c0,2-1.3,3.7-3,3.7C302.6,222,301.2,220.4,301.2,218.4z"/>
			<path class="st0" d="M302.3,220.8c0.5-0.3,1.1-0.4,1.8-0.4c0.8,0,1.4,0.2,2,0.5c-0.5,0.6-1.1,1-1.8,1
				C303.5,221.9,302.8,221.5,302.3,220.8z"/>
			<path class="st0" d="M302.4,224.7c0.1-0.2,0.7-0.2,1.3,0c0.6,0.1,1.1,0.4,1,0.5c-0.1,0.2-0.7,0.2-1.3,0
				C302.7,225,302.3,224.8,302.4,224.7z"/>
			<path class="st17" d="M317.6,207.6c-2.1-2-4.6-3.3-6-3.9l0.5-0.8c0,0,3.3,1.1,6,3.6L317.6,207.6z"/>
			<path class="st17" d="M302.3,201.8c-2.9,0.2-5.3,1.1-6.5,1.7l-0.6-0.9c0,0,2.6-1.6,6.3-1.9L302.3,201.8z"/>
		</g>
	</g>
	<path class="st7" d="M199.2,377.5l-19.4-2.8c0,0,3.7-12,6.3-8.8C190.3,371,199.2,377.5,199.2,377.5z"/>
	<polygon class="st1" points="199.4,376.8 179.6,373.8 179.3,375.9 199.1,379 	"/>
	<path class="st7" d="M104.1,329.4l4.3-19.1c0,0,12,2.7,8.5,5C111.6,319.1,104.1,329.4,104.1,329.4z"/>
	<polygon class="st1" points="104.8,329.6 109.4,310.1 107.3,309.7 102.7,329.2 	"/>
	<g class="st23">
		<path class="st24" d="M195.2,129.8c4.5-0.8,1.7-13.8,0.6-15.2c-2.1-2.5-3.8-3.4-5.2-3.1c-0.1-0.1-0.2-0.1-0.3-0.1
			c-0.3-0.1-0.6-0.1-1-0.2c-0.1,0-0.2,0-0.4,0c-0.1,0-0.2,0-0.3,0l-2.1-20.8L174.2,87c0,0,2.1,11.2,3.4,25.1
			c-2.8,0.5-5.1,1.3-6.1,2.2c-0.7,0.3-1.2,1-1.5,2c0,0,0,0,0,0c-0.1,0.3-0.2,0.7-0.2,1C178.5,116.5,177.2,132.9,195.2,129.8z"/>
	</g>
	<g>
		<path class="st13" d="M189.8,108.8c-11.8-6.3-16.6-10.8-19.6-23.2c-3-12.4,2.1-29.4,12.3-31.8c10.2-2.4,21.2,7.3,20.6,23.2
			C202.4,98.2,189.8,108.8,189.8,108.8z"/>
		<path class="st13" d="M168.3,92.3c-5.4-0.4-9.6-5.6-9.5-9.1c0-3.5,3.4-7.6,6-4.1C167.5,82.6,170.5,92.4,168.3,92.3z"/>
		<path class="st19" d="M166.5,89.7c-3.3-0.2-5.9-3.4-5.8-5.6c0-2.2,2.1-4.7,3.7-2.5C166,83.8,167.8,89.8,166.5,89.7z"/>
		<path class="st13" d="M167.2,90.3c-2.2-0.2-3.9-2.3-3.9-3.7c0-1.4,1.4-3.1,2.5-1.7C166.9,86.4,168.1,90.4,167.2,90.3z"/>
		<g>
			<path class="st25" d="M183.7,90.9l10.5,0.5c0,0-1.6,7.1-5.8,6.7C184.3,97.9,183.7,90.9,183.7,90.9z"/>
			<path class="st26" d="M184.4,91.7l8.9,0.2c0,0,0.2,2.6-4.9,2.6C183.1,94.4,184.4,91.7,184.4,91.7z"/>
			<path class="st27" d="M181,75.6c0.4-2.1,1.6-3.5,2.9-3.1c1.4,0.4,2.2,2.6,1.9,4.9c-0.3,2.4-1.8,3.8-3.2,3.1
				C181.4,79.9,180.7,77.7,181,75.6z"/>
			<path class="st27" d="M195.5,77.6c0.1-2.1,1-3.8,2.1-3.8c1.1,0,2,1.9,1.9,4.2c-0.1,2.3-1.1,4-2.2,3.8
				C196.1,81.6,195.4,79.7,195.5,77.6z"/>
			<path class="st27" d="M200.7,76.4c0,0-3.2-2.7-5.8-2.2c0,0,0.7-1.4,2.6-1C199.3,73.6,200.7,76.4,200.7,76.4z"/>
			<path class="st27" d="M180.1,74.7c0,0,3.2-2.2,6.4-1.4c0,0-0.9-1.7-3.2-1.4C181.2,72.1,180.1,74.7,180.1,74.7z"/>
			<g>
				<path class="st28" d="M201.8,72.5l0.3-0.6c-1.5-3.4-5.1-4.7-6.9-4.7l-0.5,1.4C196.2,68.3,199.9,69.6,201.8,72.5z"/>
			</g>
			<g>
				<path class="st28" d="M177.5,71.4c2.7-3,8.2-4.5,9.5-4.6l-0.3-1.5c-1.5,0.2-6.6,1.9-9.6,5.6L177.5,71.4z"/>
			</g>
			<path class="st19" d="M186.8,101.1c0-0.4,0.8-0.3,1.9-0.2c1.1,0,2-0.1,1.9,0.4c0,0.4-0.9,0.7-2,0.7
				C187.6,101.9,186.8,101.6,186.8,101.1z"/>
			<path class="st19" d="M190.6,81.7c1.3,1.2,2.7,3.8,2.5,4.9c-0.1,1.1-2.8,1.4-3.4,0.9C189,87,190.1,81.3,190.6,81.7z"/>
			<path class="st13" d="M189.7,81.2c1.3,1.2,2.7,3.8,2.5,4.9c-0.1,1.1-2.8,1.4-3.4,0.9C188.1,86.5,189.3,80.8,189.7,81.2z"/>
		</g>
	</g>
	<polygon class="st10" points="194.6,235.7 204.7,229.2 194.4,232.6 183.6,229.4 	"/>
	<path class="st1" d="M323.2,240.4c0,1.4,1.1,2.5,2.5,2.5c1.4,0,2.5-1.1,2.5-2.5c0-1.4-1.1-2.5-2.5-2.5
		C324.4,237.9,323.2,239.1,323.2,240.4z"/>
	<path class="st24" d="M324.4,240.4c0,0.7,0.6,1.3,1.3,1.3c0.7,0,1.3-0.6,1.3-1.3s-0.6-1.3-1.3-1.3
		C325,239.1,324.4,239.7,324.4,240.4z"/>
	<path class="st29" d="M264.1,266.9c19.4,45.8,84.9,53.7,113.3,12.8c-11.2-8.3-27.7-15.4-46.8-19.2
		C302.5,254.8,276.9,257.8,264.1,266.9z"/>
	<g>
		<path class="st13" d="M223.2,195.8c1.7,2.1,3.1,4,3.7,4.3c1.5,0.5,2.8-0.9,5.5-0.6c1,0.1,0.4-2.2-0.7-2.6
			c-1.1-0.4-4.3-0.4-7.4-1.8C222.3,194.1,223.2,195.8,223.2,195.8z"/>
		<path class="st13" d="M229.7,199.2c4.3-0.1,7.1,3.3,7.4,2.6c0.3-0.9-2.3-4.2-5.9-4.3L229.7,199.2z"/>
		<path class="st13" d="M229.1,198.2c1.8-0.4,6.2,2.2,7,1.8c1.5-0.7-4.1-3.6-5.7-3.6L229.1,198.2z"/>
	</g>
</g>
<g>
	<path class="st13" d="M116.4,324.8c-5.7-2.1-5.7,5.9-5.7,7.9c0,5.1,0.7,21.8,4,41.8l0.8,0C117.1,368.6,122.1,326.9,116.4,324.8z"/>
	<path class="st0" d="M117.9,343.8c0.4,0,0.7,0.1,1.1,0.2c0.4-9.8,0-18.3-2.5-19.2c-5.7-2.1-5.7,5.9-5.7,7.9c0,2.9,0.2,9.5,1,18.3
		C113.2,346.6,115.4,343.8,117.9,343.8z"/>
	<path class="st13" d="M96.3,312.9c-6.6-0.7-4.6,8.5-4.1,10.8c1.3,5.8,6.2,24.7,14.8,46.5l0.9-0.2C107.9,362.7,103,313.7,96.3,312.9
		z"/>
	<path class="st0" d="M105.5,345.2c-2.1-15.3-5.3-31.8-9.2-32.2c-6.6-0.7-4.6,8.5-4.1,10.8c1,4.4,4,16.2,9.1,31.2
		C102.1,350.1,103.7,346.5,105.5,345.2z"/>
	<path class="st17" d="M133.5,265.9c8.5-2.3,17.7-15.6,17.6-33.4c-0.1-17.1-10.5-14.4-10.5-14.4s-1.2-15.2-10.3-14.8
		c-9,0.4-10.6,7.8-10.6,7.8s-3.5-8.5-11.2-4.6c-12.2,6.1-9.7,15.7-9.7,15.7s-6.8-2.3-11.3,13.7c-6.5,23.1,2.5,25.6,2.5,25.6
		s-7.2,13,11,18.7C115.3,284.5,119.1,288.5,133.5,265.9z"/>
	<path class="st30" d="M127.2,234.7c-14.1,0-25.8-8.6-27.4-19.8c-1.7,3.9-0.9,7.1-0.9,7.1s-6.8-2.3-11.3,13.7
		c-6.5,23.1,2.5,25.6,2.5,25.6s-7.2,13,11,18.7c14.2,4.4,18,8.3,32.4-14.2c8.5-2.3,17.7-15.6,17.6-33.4c0-3.2-0.4-5.7-1-7.7
		C145.1,230.8,136.7,234.7,127.2,234.7z"/>
	<path class="st31" d="M112.3,240.3c-11.3,0-20.4,12.3-20.4,27.5c0,2.8,0.3,5.5,0.9,8.1c1.9,1.6,4.6,3.1,8.4,4.3
		c13.9,4.3,17.8,8.2,31.5-12.9C132.5,252.3,123.4,240.3,112.3,240.3z"/>
	<path class="st13" d="M113.8,276.2c4.5,2.7,41.5,16,41.5,16l0.6-1.4c0,0-29.8-18.8-34.3-20.3C117.2,269.2,111.7,275,113.8,276.2z"
		/>
	<path class="st0" d="M126.8,278c-1-0.7-0.2-2.5,1.3-3.9c-3.1-1.8-5.5-3.1-6.6-3.4c-4.4-1.4-9.9,4.4-7.8,5.6
		c4.5,2.7,41.5,16,41.5,16l0.5-1C144.8,286.5,129.6,279.8,126.8,278z"/>
	<path class="st32" d="M94.2,337.5c30.7,1.8,34.6-4.5,40.4-16c0,0-18-24-12.4-48.1c1.8-7.7-17-12.5-20.4-8.7
		C98.3,268.4,78.2,302.7,94.2,337.5z"/>
	<path class="st33" d="M118.4,267.3c0.2-0.9-2.1-2.4-5.2-3.5c-3.1-1.1-5.8-1.3-6-0.4c-0.2,0.9,2.1,2.4,5.2,3.5
		C115.5,268,118.2,268.2,118.4,267.3z"/>
	<path class="st34" d="M119.4,282.3c0,8.5,2.3,14.8,4.8,18.7c-2.3-6.9-3.8-14.9-2.9-23.1C120.9,278.3,119.4,277.2,119.4,282.3z"/>
	<path class="st34" d="M104.2,272.3c2.2-5.5,1.9-9,0-9.5c-2-0.5-4.9,2.2-7.1,7.7c-2.2,5.5-2.1,12.1-1.4,12.5
		C96.3,283.4,102,277.8,104.2,272.3z"/>
	<path class="st34" d="M95.1,296.9c0-13.6,3.5-25.7,9-33.4c-1.1,0.2-1.9,0.6-2.4,1.1c-3.4,3.7-23.5,38-7.5,72.8
		c7.3,0.4,13,0.4,17.7,0C102.2,332.5,95.1,316.2,95.1,296.9z"/>
	<path class="st33" d="M104.3,270c2.2-5.5,1.5-9.2-1.1-9.9s-6,1.8-8.2,7.3c-2.2,5.5,0.4,11.7,1.3,12.2
		C97.3,280,102.1,275.5,104.3,270z"/>
	<path class="st13" d="M96.3,273.9c-2.9-5.8-17.7-53.9-17.7-53.9l1.4-0.9c0,0,20.6,38.4,22.2,44.2
		C103.8,269.1,97.6,276.6,96.3,273.9z"/>
	<path class="st0" d="M102.2,263.4c-0.2-0.7-0.7-2-1.5-3.7c-1.5,2.6-3.7,4.1-4.5,2.7c-2.2-3.9-11.2-28.5-16.5-43.1l-1.2,0.7
		c0,0,14.8,48.1,17.7,53.9C97.6,276.6,103.8,269.1,102.2,263.4z"/>
	<path class="st33" d="M121.2,286.4c0.1-0.2,5.4-14.6,5.4-14.6s-2.3-4.1-6.3-3.5C120.3,270.9,121.2,286.4,121.2,286.4z"/>
	<path class="st13" d="M119.3,256l-7.1-2.1l-3,9.7c2.6,2,5,3.1,7.1,2.1L119.3,256z"/>
	<path class="st1" d="M119.7,383.8c-6.3-4.4-6.9-8.3-5.1-10.6C118.9,367.7,119.7,383.8,119.7,383.8z"/>
	<path class="st1" d="M105.4,380.3c-3-7-1.5-10.7,1.2-11.7C113.2,366.2,105.4,380.3,105.4,380.3z"/>
	<path class="st2" d="M113.5,273.2c4.7,0.9,9.2,0.7,12.7-0.5c0.2-0.6,0.3-1,0.3-1s-2.3-4.1-6.3-3.5c0,0,0,0,0,0
		c-0.6-0.6-1.3-1.1-2-1.5c-0.3-0.4-0.9-1-1.8-1.5l2.9-9.2l-7.1-2.1l-2.8,8.9c-1.3-0.1-2.1,0-2.3,0.5c0,0,0,0,0,0c-0.5,0-1.1,0-1.6,0
		c-0.2-1.7-1-2.9-2.3-3.3c-0.7-0.2-1.5-0.1-2.3,0.2c-0.6-1.3-1.3-2.8-2.1-4.5c-0.6,0.8-1,1.8-1.2,2.8
		C96.4,264.7,103.5,271.2,113.5,273.2z"/>
	<g>
		<path class="st13" d="M136.4,251c3.1-10.1-0.8-19.7-11.6-23.7c-10.8-4-19.7,2.4-22.2,12.7c-2.5,10.3-0.2,17.9,10.6,22.1
			C126.8,267.3,134.1,258.5,136.4,251z"/>
		<g>
			<path id="XMLID_148_" class="st19" d="M109.9,239.8c0.8-2.4,3-3.5,5-2.6c2,0.9,3,3.5,2.2,5.9c-0.8,2.4-2.6,2.5-4.6,1.6
				C110.5,243.8,109.2,242.2,109.9,239.8z"/>
			<path id="XMLID_147_" class="st19" d="M123.6,244.4c0.8-2.4,3-3.5,5-2.6c2,0.9,3,3.5,2.2,5.9c-0.8,2.4-2.6,2.5-4.6,1.6
				C124.2,248.4,122.8,246.8,123.6,244.4z"/>
			<path id="XMLID_146_" class="st20" d="M123.4,245.2c0.8-2.3,3.1-3.6,5-2.9c1.9,0.7,2.8,3.2,2,5.5c-0.8,2.3-2.7,2.5-4.6,1.8
				C123.9,249,122.6,247.5,123.4,245.2z"/>
			<path id="XMLID_145_" class="st21" d="M125,244c0.3-1.3,1.5-2.1,2.5-1.8c1.1,0.3,1.7,1.5,1.4,2.8c-0.3,1.3-1.5,2.1-2.5,1.8
				C125.3,246.6,124.7,245.3,125,244z"/>
			<path id="XMLID_144_" class="st20" d="M125.3,243c0.1-0.5,0.6-0.8,1-0.7c0.4,0.1,0.7,0.6,0.5,1.1c-0.1,0.5-0.6,0.8-1,0.7
				C125.4,244,125.2,243.5,125.3,243z"/>
			<path id="XMLID_143_" class="st17" d="M135.3,243.6l-1.9,0.6c0.1-1.2-2.3-5.9-6.5-7.2l2.2-2.2
				C129.1,234.7,135.7,237.8,135.3,243.6z"/>
			<path id="XMLID_142_" class="st20" d="M110,240.8c0.8-2.3,3-3.5,4.8-2.7c1.9,0.8,2.7,3.3,1.9,5.5c-0.8,2.3-2.6,2.5-4.4,1.7
				C110.5,244.5,109.2,243.1,110,240.8z"/>
			<path id="XMLID_141_" class="st21" d="M111.7,239.6c0.3-1.3,1.4-2.1,2.5-1.8c1.1,0.3,1.7,1.5,1.4,2.8s-1.4,2.1-2.5,1.8
				C112,242.1,111.4,240.9,111.7,239.6z"/>
			<path id="XMLID_140_" class="st20" d="M111.9,238.5c0.1-0.5,0.6-0.8,1-0.7c0.4,0.1,0.7,0.6,0.5,1.1c-0.1,0.5-0.6,0.8-1,0.7
				C112.1,239.5,111.8,239,111.9,238.5z"/>
			<path id="XMLID_139_" class="st17" d="M106.8,233.8l1.3,1.5c0.6-1.1,5-3.8,9.2-2.7l-0.7-3.1C116.6,229.6,109.5,228.7,106.8,233.8
				z"/>
			<path id="XMLID_138_" class="st35" d="M122.1,255.3l-11.1-3.1c0,0,0.2,4.1,3.9,5.5C119.1,259.3,122.1,255.3,122.1,255.3z"/>
			<path id="XMLID_137_" class="st20" d="M120.9,255.3l-9.2-2.6c0,0,0.7,1.9,4.3,2.9C120.1,256.9,120.9,255.3,120.9,255.3z"/>
			<path id="XMLID_136_" class="st19" d="M118.4,251.1c-1.2-0.2-2.2-1.2-2.2-1.2l3.4-1.8C121.3,249.7,120,251.4,118.4,251.1z"/>
			<path id="XMLID_135_" class="st13" d="M118.2,250.6c-1-0.1-1.8-0.9-1.8-0.9l2.7-1.4C120.3,249.5,119.3,250.7,118.2,250.6z"/>
			<path class="st19" d="M113.8,259.3c0.1-0.2,0.8,0,1.8,0.3c0.9,0.3,1.6,0.8,1.5,0.9c-0.1,0.2-0.8,0-1.8-0.3
				C114.5,259.9,113.8,259.5,113.8,259.3z"/>
		</g>
		<path class="st13" d="M137.7,251.2c2.3-2.6,5.7-0.1,3.5,2.3s-6,3.3-5.8,1.9C135.7,253.9,136.6,252.4,137.7,251.2z"/>
		<path class="st36" d="M138.2,252.1c1.3-1.5,3.2,0,2,1.3c-1.2,1.3-3.4,1.9-3.3,1.1C137.1,253.7,137.6,252.8,138.2,252.1z"/>
		<path class="st13" d="M137.3,253.3c0.9-1,2.2,0,1.4,0.9s-2.3,1.3-2.2,0.7C136.6,254.3,136.9,253.7,137.3,253.3z"/>
		<path class="st13" d="M99.7,240.9c-0.1-3.5-4.9-4.1-4.8-0.9c0.2,3.2,2.8,6.6,3.7,5.5C99.5,244.3,99.8,242.6,99.7,240.9z"/>
		<path class="st36" d="M98.6,241.2c-0.1-2-2.8-2.3-2.7-0.5c0.1,1.8,1.6,3.8,2.1,3.1S98.6,242.2,98.6,241.2z"/>
		<path class="st13" d="M98.5,242.7c0-1.4-1.9-1.6-1.9-0.4c0.1,1.2,1.1,2.6,1.4,2.1C98.4,244,98.5,243.3,98.5,242.7z"/>
	</g>
	<g>
		<path class="st13" d="M80.2,222.8c-1.8-1.7-2.9-2.2-3.3-2.7c-0.4-0.4-1.9-1.7-1.6-2.6c0.3-0.9,3.6-3.5,4.2-2.7
			c0.6,0.8,0.7,4,1.6,6.9C81.7,223.7,80.2,222.8,80.2,222.8z"/>
		<path class="st13" d="M76.2,219.1c-1.2-1.1-5-4.2-4.9-4.8c0.1-0.6,5.7,3.1,5.7,3.1L76.2,219.1z"/>
		<path class="st13" d="M80.5,220.7c0.3-2.4,2.8-6,2.4-6.4c-0.4-0.4-4,4.6-4,4.6L80.5,220.7z"/>
		<path class="st13" d="M77.1,217.5c-0.8-1.5-3.4-5.7-3.1-6.3c0.3-0.7,4.4,4.6,4.4,4.6L77.1,217.5z"/>
		<path class="st13" d="M78.2,217.8c0-1.7-0.5-6.7,0.1-7.4c0.6-0.7,1.7,5.9,1.7,5.9L78.2,217.8z"/>
	</g>
	<g>
		<path class="st13" d="M151.4,288.1c2.2,1.1,3.4,1.3,3.9,1.7c0.5,0.3,2.3,1.2,2.2,2c-0.1,0.9-2.5,4.3-3.3,3.7
			c-0.8-0.6-1.7-3.7-3.4-6.2C149.7,287.6,151.4,288.1,151.4,288.1z"/>
		<path class="st13" d="M156.2,290.6c1.5,0.8,5.9,2.6,6,3.2c0.1,0.6-6.3-1.4-6.3-1.4L156.2,290.6z"/>
		<path class="st13" d="M151.6,290.2c0.3,2.4-1.1,6.6-0.5,6.8c0.5,0.2,2.6-5.5,2.6-5.5L151.6,290.2z"/>
		<path class="st13" d="M155.8,292.4c1.1,1.2,4.8,4.5,4.7,5.2c-0.1,0.7-5.5-3.3-5.5-3.3L155.8,292.4z"/>
		<path class="st13" d="M154.6,292.4c0.5,1.6,2.3,6.3,1.9,7.1c-0.4,0.8-3.3-5.2-3.3-5.2L154.6,292.4z"/>
	</g>
</g>
</svg>
