<?xml version="1.0" encoding="utf-8"?>
<!-- Generator: Adobe Illustrator 25.2.1, SVG Export Plug-In . SVG Version: 6.00 Build 0)  -->
<svg version="1.1" id="Layer_1" xmlns="http://www.w3.org/2000/svg" xmlns:xlink="http://www.w3.org/1999/xlink" x="0px" y="0px"
	 viewBox="0 0 500 425" style="enable-background:new 0 0 500 425;" xml:space="preserve">
<style type="text/css">
	.st0{fill:#FFB882;}
	.st1{fill:#D33C31;}
	.st2{fill:#BF2521;}
	.st3{fill:#A01818;}
	.st4{fill:#FFC84D;}
	.st5{fill:#FFA33E;}
	.st6{fill:#E85684;}
	.st7{fill:#D63C74;}
	.st8{fill:#FFDF97;}
	.st9{fill:#F4C669;}
	.st10{fill:#FF9566;}
	.st11{fill:#663C49;}
	.st12{fill:#4F2C39;}
	.st13{fill:#FF7752;}
	.st14{opacity:0.6;fill:#843131;enable-background:new    ;}
	.st15{fill:#EA7B59;}
	.st16{fill:#FFFBDD;}
	.st17{fill:#3F7FA5;}
	.st18{fill:#763224;}
	.st19{fill:#D3583C;}
	.st20{fill:#9E2B20;}
	.st21{fill:#841A15;}
	.st22{fill:#4F3131;}
	.st23{fill:#EF8F6F;}
	.st24{fill:#542A29;}
	.st25{fill:#FFF7E9;}
</style>
<g>
	<g>
		<path class="st0" d="M338.9,62.5c2.5-1,3.8-1.2,4.4-1.6c0.6-0.3,2.6-1.1,2.6-2.1s-2.3-4.8-3.2-4.2c-0.9,0.6-2.2,3.9-4.3,6.6
			C337,63,338.9,62.5,338.9,62.5z"/>
		<path class="st0" d="M344.3,60.1c1.7-0.7,6.7-2.5,6.8-3.1c0.1-0.6-7,1.2-7,1.2L344.3,60.1z"/>
		<path class="st0" d="M339.4,60.3c0.6-2.5-0.5-7.2,0.1-7.4s2.2,6.2,2.2,6.2L339.4,60.3z"/>
		<path class="st0" d="M344.1,58.2c1.3-1.2,5.7-4.6,5.6-5.4c0-0.8-6.3,3.2-6.3,3.2L344.1,58.2z"/>
		<path class="st0" d="M342.8,58.1c0.7-1.7,3.1-6.7,2.8-7.6c-0.3-0.9-4.1,5.5-4.1,5.5L342.8,58.1z"/>
	</g>
	<path class="st1" d="M272.8,75.3c-6.6-6.6-7.9-23.5,1.7-39.8c9.1-15.5,17.2-7.6,17.2-7.6s9.2-13.2,17.2-8.1s5.5,12.7,5.5,12.7
		s7.6-5.9,12.7,1.8c7.9,12,0.5,19.4,0.5,19.4s7.4,1.5,3,18.5c-6.3,24.5-15.9,22-15.9,22s-0.3,15.7-19.9,11.2
		C279.5,101.9,274,103.5,272.8,75.3z"/>
	<path class="st2" d="M271.9,40.6c0.5,6.7,3.2,12.7,8.3,16.7c11.3,9,29.6,4.9,41-9.3c3.1-3.8,5.3-8,6.7-12.2c6.4,11.1-0.3,18-0.3,18
		s7.4,1.5,3,18.5c-6.3,24.5-15.9,22-15.9,22s-0.3,15.7-19.9,11.2c-15.3-3.5-20.8-1.9-22-30.1C266.9,69.4,265.3,55.2,271.9,40.6z"/>
	<path class="st3" d="M273.8,87.3c2.2-14.1,10.5-24.6,20.4-24.6c11.4,0,20.7,14.1,21,31.6c-0.3,0-0.5-0.1-0.5-0.1
		s-0.3,15.7-19.9,11.2C282.1,102.5,276.2,103.1,273.8,87.3z"/>
	<path class="st0" d="M297.8,84.8l0.5-6.7l-7-2.2l-2,8.9C289.4,84.8,292.9,87.5,297.8,84.8z"/>
	<path class="st4" d="M302.1,147c9.3-11.2-3.4-20.2,2.9-57.8c0.8-4.8-17.3-8-23.1,0c-4,5.4-15.1,53.9-15.1,53.9L302.1,147z"/>
	<path class="st5" d="M281.9,89.1c1.9-2.6,7.5-8.2,5.9,6.8c-1.5,13.9-1.1,25.4,2.7,26c3.8,0.6,5.2-14.3,7.5-28
		c0.7-4.4,2.6-8.7,4.6-7.9c1.6,0.8,2.6,1.9,2.4,3.1c-6.3,37.7,6.3,46.7-2.9,57.8l-35.3-4C266.8,143,277.9,94.6,281.9,89.1z"/>
	<path class="st6" d="M200.9,176c26.8-42.7,37.3-43.4,64.3-42.6c-7.1,23.3-21.9,47.6-28.8,50.9c-3.3,7.7-14.5,27.5-30.3,20.4
		C193.7,199.2,195.9,184.1,200.9,176z"/>
	<path class="st7" d="M254.5,142.5c4.7-0.3,9.8-0.3,15.7-0.1c-8.7,20.5-25.1,41.7-32.2,44.7c-3.3,5.8-12.8,19.2-25,19.2
		c-6.3-5.3-5-15.2-1.4-21.3C229,154.9,239.3,146.1,254.5,142.5z"/>
	<path class="st8" d="M224,189.2c-0.1-9.7-6.8-17.6-15-17.6s-14.8,7.9-14.8,17.6c0.1,9.7,6.8,17.6,15,17.6
		C217.4,206.8,224,198.9,224,189.2z"/>
	<path class="st9" d="M219.8,177.1c0.1,0.9,0.2,1.9,0.2,2.9c0.1,9.7-6.5,17.6-14.8,17.6c-4.3,0-8.1-2.1-10.8-5.5
		c1.2,8.4,7.4,14.7,14.8,14.7c8.2,0,14.8-7.9,14.8-17.6C223.9,184.5,222.3,180.3,219.8,177.1z"/>
	<path class="st0" d="M206.9,141.6l12.2-1.2c1.8,19.9,11.1,40.9-0.9,57.3c-8.7,11.9-22.2,1.5-22.5-10.3
		C195.4,175.6,206.9,141.6,206.9,141.6z"/>
	<path class="st10" d="M207.5,183.1c10.5-11.4,11.6-42.7,11.6-42.7c1.8,19.9,11.1,40.9-0.9,57.3c-8.7,11.9-22.2,1.5-22.5-10.3
		c0-0.2,0-0.4,0-0.6C199.4,188.1,203.6,187.4,207.5,183.1z"/>
	<path class="st11" d="M209,232.3c-1.2,57.8,38.3,175.9,38.3,175.9h1.7c0,0,6.2-137,6.1-142.2c-0.2-5.3-13.1-28-13.1-28L209,232.3z"
		/>
	<path class="st12" d="M247.3,407.9c-2.8-37.2-12.8-146.5-13.5-151.5c-0.5-3.4-4.1-13.7-8.6-21.3l16.9,2.9c0,0,12.9,22.7,13.1,28
		s-6.1,142.2-6.1,142.2h-1.7C247.4,408.3,247.3,408.2,247.3,407.9z"/>
	<path class="st11" d="M335.2,393.2c0,0-75.8-57-78.6-63.8c-2.8-6.8-15.8-48.1-15.8-48.1l-14.3-7l-11.3-53.4l62,8.9l6.3,90.4
		l53.6,71.1L335.2,393.2z"/>
	<path class="st12" d="M272,267.6c-23.5-1.6-45.4-4.4-61.7-11.2l-1.5-10.6l64.3,7.3L272,267.6z"/>
	<polygon class="st12" points="273.2,322.8 267,232.4 215.6,225 215.1,221 277.1,229.9 283.4,320.3 336.9,391.4 335.6,392.8 	"/>
	<path class="st6" d="M282.4,259.3c-9.5,4.2-66.7,0.7-76.4-12.4c0,0-1.2-68.9,44.5-111c5.3-4.9,35.9-7.2,48.6,7.5
		c6.7,7.7-10.1,53.7-14.7,75.2C280.7,235.6,282.4,259.3,282.4,259.3z"/>
	<path class="st7" d="M224.6,252.4c17.9,5,32.1-9.4,45-49.4c11.1-34.5,22.5-52.7,28.5-45.8c6.7,7.7-9,39.9-13.6,61.4
		c-3.7,17-2,40.7-2,40.7c-9.5,4.2-66.7,0.7-76.4-12.4c0,0-0.1-4.1,0.5-10.9C209.3,245,215.8,250,224.6,252.4z"/>
	<path class="st6" d="M311.3,207.2c8.1-49.1-5.6-62.7-19.3-69.2c-13.6-6.5-12.7,48.2-10,54.9c-2.5,8-7.1,30,8,33.7
		C301.9,229.5,309.8,216.4,311.3,207.2z"/>
	<path class="st7" d="M290.3,136.1l8.4,5.7c-0.1,0.2-0.1,0.4-0.1,0.4S286,151.8,273,169l-0.9-0.1C273.2,164.8,283.4,145,290.3,136.1
		z"/>
	<path class="st7" d="M287.6,218.1c10.5,1.3,21.5-16.9,24.5-40.8c0.4-3.1,0.6-6.1,0.7-9c1.4,9.6,1.2,22.2-1.6,38.9
		c-1.5,9.2-9.4,22.3-21.3,19.4c-7.2-1.8-9.9-7.8-10.5-14.4C281.7,215.6,284.5,217.7,287.6,218.1z"/>
	<path class="st8" d="M274.2,204.8c-0.8-12.5,7.1-22.7,17.5-22.7s19.5,10.1,20.3,22.7c0.8,12.5-7.1,22.7-17.5,22.7
		C284.1,227.5,275,217.3,274.2,204.8z"/>
	<path class="st9" d="M278.5,189.2c-0.1,1.2-0.1,2.4,0,3.7c0.8,12.5,9.9,22.7,20.3,22.7c5.4,0,10.1-2.7,13.3-7.1
		c-0.8,10.8-8.1,19-17.5,19c-10.4,0-19.5-10.1-20.3-22.7C273.9,198.8,275.5,193.3,278.5,189.2z"/>
	<path class="st8" d="M252.6,139.2c-0.5-3,5.6-6.5,13.7-7.9s15-0.1,15.6,2.8c0.5,3-5.6,6.5-13.7,7.9
		C260,143.5,253.1,142.2,252.6,139.2z"/>
	<path class="st0" d="M277.8,105.4l-27.2,7.8l-1.6,21.3c6.3,8.3,23.4,6.4,30.6-0.5L277.8,105.4z"/>
	<path class="st0" d="M293.2,131.4c6.8,0.5,3.8,9.2,3.8,9.2s-12.6,9.6-25.6,26.8l-0.9-0.1C272,161.7,286.3,130.9,293.2,131.4z"/>
	<path class="st13" d="M298.5,95.7c0.6-5,2.2-8.9,3.7-8.7c1.4,0.2,2.1,4.3,1.5,9.3s-2.2,8.9-3.7,8.7
		C298.6,104.8,297.9,100.7,298.5,95.7z"/>
	<path class="st0" d="M303.3,94.9c8.1-2.6,37.9-33.9,37.9-33.9l-0.8-1.3c0,0-34.2,22.7-38.4,26.7C297.7,90.5,298.3,96.5,303.3,94.9z
		"/>
	<path class="st10" d="M300.6,87.9c0.4,1.3,1.7,2.1,3.9,1.5c6.6-1.8,36.7-28.5,36.7-28.5s-29.8,31.4-37.9,34
		C298.9,96.3,297.9,91.8,300.6,87.9z"/>
	<path class="st14" d="M293.8,89.8c-3.6,0-7.1-1.7-8.2-3.8c0.1,0,0.3-0.1,0.4-0.1c1.1-0.5,2.2-0.9,3.5-1.2l0,0l2-8.9l7,2.2l-0.5,6.5
		c1.8,0.3,3.4,0.8,4.6,1.4c1.2-1,3.4-2.6,6.1-4.6C307.5,85.1,300.7,89.8,293.8,89.8z"/>
	<g>
		<path class="st0" d="M277.1,58.1c2.1-12.1,11.3-19.9,24.6-18.4c13.3,1.6,19.1,13,16.2,25s-9.4,18.7-22.7,17.2
			C278.3,80.1,275.5,67.2,277.1,58.1z"/>
		<g>
			<path id="XMLID_92_" class="st15" d="M310.5,60.7c0.5-2.9-1.2-5.3-3.8-5.4c-2.5-0.1-5,2.1-5.4,4.9c-0.5,2.9,1.4,4,3.9,4.1
				C307.8,64.4,310,63.5,310.5,60.7z"/>
			<path id="XMLID_91_" class="st15" d="M293.9,58.2c0.5-2.9-1.2-5.3-3.8-5.4c-2.5-0.1-5,2.1-5.4,4.9c-0.5,2.9,1.4,4,3.9,4.1
				C291.2,61.9,293.5,61,293.9,58.2z"/>
			<path id="XMLID_90_" class="st16" d="M293.6,59.1c0.4-2.8-1.3-5.3-3.6-5.6c-2.4-0.3-4.6,1.8-4.9,4.6c-0.4,2.8,1.4,4.1,3.8,4.3
				C291.2,62.7,293.3,61.9,293.6,59.1z"/>
			<path id="XMLID_89_" class="st17" d="M292.4,58.4c0.4-1.5-0.4-2.9-1.7-3.2c-1.3-0.3-2.6,0.7-2.9,2.2c-0.4,1.5,0.4,2.9,1.7,3.2
				C290.7,60.9,292.1,59.9,292.4,58.4z"/>
			<path id="XMLID_80_" class="st16" d="M292.7,57.2c0.1-0.6-0.2-1.1-0.6-1.2c-0.5-0.1-1,0.3-1.1,0.8c-0.1,0.6,0.2,1.1,0.6,1.2
				C292.1,58.2,292.6,57.8,292.7,57.2z"/>
			<path id="XMLID_79_" class="st1" d="M282.2,51l1.6,1.6c0.6-1.3,5.5-4.8,10.6-4l-1.1-3.5C293.3,45.1,284.9,44.8,282.2,51z"/>
			<path id="XMLID_78_" class="st16" d="M309.9,61.6c0.4-2.8-1.2-5.2-3.6-5.4c-2.3-0.2-4.5,1.9-4.9,4.7c-0.4,2.8,1.4,3.9,3.7,4.1
				C307.4,65.2,309.5,64.4,309.9,61.6z"/>
			<path id="XMLID_77_" class="st17" d="M308.6,60.8c0.4-1.5-0.4-2.9-1.7-3.2c-1.3-0.3-2.6,0.7-2.9,2.1c-0.4,1.5,0.4,2.9,1.7,3.2
				C306.9,63.2,308.3,62.3,308.6,60.8z"/>
			<path id="XMLID_76_" class="st16" d="M308.9,59.5c0.1-0.6-0.2-1.1-0.6-1.2c-0.5-0.1-1,0.3-1.1,0.8c-0.1,0.6,0.2,1.1,0.6,1.2
				C308.3,60.5,308.8,60.1,308.9,59.5z"/>
			<path id="XMLID_75_" class="st1" d="M317,56.1l-2.1,0.9c0-1.4-3.1-6.5-8.2-7.7l2.3-2.8C309,46.5,316.9,49.4,317,56.1z"/>
			<path id="XMLID_74_" class="st18" d="M289.7,70.2l13.1,2.7c0,0-2.5,4.1-7,3.6C290.6,75.9,289.7,70.2,289.7,70.2z"/>
			<path id="XMLID_73_" class="st16" d="M290.9,70.8l11,2.2c0,0-1.7,1.6-6,0.7C290.9,72.9,290.9,70.8,290.9,70.8z"/>
			<path id="XMLID_67_" class="st15" d="M295.7,67.8c1.4,0.4,2.9-0.1,2.9-0.1L296,64C293.4,64.8,293.9,67.3,295.7,67.8z"/>
			<path id="XMLID_63_" class="st0" d="M296.2,67.4c1.1,0.4,2.3,0,2.3,0l-2-2.9C294.6,65.1,294.9,66.9,296.2,67.4z"/>
			<path class="st15" d="M296.1,78.7c0-0.2-0.9-0.5-2-0.6S292,78,292,78.3c0,0.2,0.9,0.5,2,0.6S296,79,296.1,78.7z"/>
		</g>
		<path class="st0" d="M275.6,57.6c-1-3.9-5.8-3.1-4.9,0.5c1,3.5,4.4,6.6,5,5S276.1,59.5,275.6,57.6z"/>
		<path class="st19" d="M274.6,58.3c-0.6-2.2-3.3-1.8-2.8,0.3c0.6,2,2.5,3.7,2.8,2.8C275,60.5,274.9,59.4,274.6,58.3z"/>
		<path class="st0" d="M274.9,60c-0.4-1.5-2.3-1.2-1.9,0.2s1.7,2.6,1.9,1.9C275.2,61.5,275.1,60.7,274.9,60z"/>
		<path class="st0" d="M320.5,67.2c2-3.6,7.3-1.6,5.4,1.6s-6.4,5.4-6.7,3.7C318.9,70.9,319.6,69,320.5,67.2z"/>
		<path class="st19" d="M321.5,68.2c1.1-2.1,4.2-0.9,3.1,0.9s-3.7,3-3.8,2.1C320.6,70.2,320.9,69.1,321.5,68.2z"/>
		<path class="st0" d="M320.8,69.7c0.8-1.4,2.8-0.6,2.1,0.6c-0.7,1.3-2.5,2.1-2.6,1.4C320.2,71.1,320.4,70.4,320.8,69.7z"/>
	</g>
	<path class="st8" d="M232.8,416.1l19.2,0.1c0,0-1.8-12.2-4.8-9.5C242.4,411.1,232.8,416.1,232.8,416.1z"/>
	<polygon class="st8" points="232.7,415.4 252.4,415.4 252.4,417.4 232.7,417.5 	"/>
	<path class="st8" d="M333.2,403.5l5.9-18.3c0,0-12.2-2-10.5,1.8C331.3,392.9,333.2,403.5,333.2,403.5z"/>
	<polygon class="st8" points="332.5,403.4 338.4,384.6 340.3,385.3 334.5,404.1 	"/>
	<polygon class="st12" points="237.1,283.6 250,280 236.6,278.6 221.6,271.8 	"/>
	<path class="st14" d="M233.9,138c4.9-2.6,9.7-3.9,15.3-4.4l1.5-20.4l27.2-7.8l1.7,26.4c1.1,0.5,1.9,1.2,2.2,2
		c1.9,0.5,3.8,1.1,5.7,1.8c2.2-2.6,4.2-4.3,5.8-4.1c6.8,0.5,3.8,9.2,3.8,9.2l0,0l1.7,1.2c0,0,0,0,0,0.1c2.5,1.9,4.9,4.2,7.1,7.1
		c-7.6,4.8-18.7,7.8-31.2,7.8C254,156.9,237,148.7,233.9,138z"/>
	<path class="st0" d="M306.9,212.6c7.2-21.2-11.4-38.3-21.1-57.3l-13.3,6.2c0,0,0.2,38.5,5.1,50.1
		C282.6,223.3,301.7,228,306.9,212.6z"/>
	<g>
		<path class="st20" d="M288.4,69.2c-2.9-4.1-5-2.7-5-2.7s-6.1-9.3-9.7-10.3c0,0-8.6-6-13.4-2.9c0,0-12.7-3.8-18.3,3.7
			c-5.6,7.5-0.4,18.6-0.4,18.6s-0.1,23.9,7.2,37.4l29.6,0.2c7.7-16.8,8.4-27,8.4-27S291.3,73.3,288.4,69.2z"/>
		<path class="st21" d="M286.7,86.3c0,0,4.6-12.9,1.8-17c-2.9-4.1-5-2.7-5-2.7s-6.1-9.3-9.7-10.3c0,0-0.3-0.2-0.8-0.5
			c4.1,4.6,5.9,9.8,4.2,14.4c-2.6,7-12.7,10-23.8,7.6c-0.1,3.6-1,7.6-2.5,11.8c-1.7,4.5-4,8.4-6.4,11.2c1,4.4,2.4,8.8,4.4,12.4
			l29.6,0.2C286,96.4,286.7,86.3,286.7,86.3z"/>
		<path class="st20" d="M281.2,93c-1.2,17-1,33.2-8.9,40.2s-27.8,10.5-36.5,4.2c0,0,6.1-10.4,5-16.3c-1.1-5.9,5.3-27,5.3-27
			l31.5-2.4L281.2,93z"/>
		<path class="st21" d="M282.5,92.9l-4.9-1.1l-3.3,0.4c-1.1,16.6-0.2,32-7.9,38.8c-6.2,5.5-19.8,8.8-29.6,6.9c9.1,5.5,28,2,35.6-4.7
			C280.2,126.3,281.3,109.9,282.5,92.9z"/>
		<path class="st0" d="M244.8,75.1c-1.4,6.3-0.1,31,1.5,33.5s21.8,4.2,24.5,0.5c2.8-3.8,1.1-30.6-1-34.6
			C267.7,70.5,246.4,67.8,244.8,75.1z"/>
		<path class="st21" d="M280.5,95.7l-3.7,8.2l-3.3,0.3c0,0-5.5-30.5,2.5-32.7C284,69.4,280.5,95.7,280.5,95.7z"/>
		<path class="st0" d="M275.9,99.8c1.4-8.6,9.8-8.6,9.9-3s-5.6,12-7.2,10.7C276.8,106.1,275.4,102.7,275.9,99.8z"/>
		<path class="st19" d="M277.6,99.9c0.9-5.6,6.4-5.6,6.4-2c0.1,3.7-3.6,7.8-4.7,7C278.2,104.1,277.3,101.8,277.6,99.9z"/>
		<path class="st0" d="M277.8,101.9c0.7-4.2,4.8-4.2,4.8-1.5c0,2.8-2.7,5.9-3.5,5.2C278.2,105,277.5,103.4,277.8,101.9z"/>
		<g>
			<path class="st22" d="M247.4,94.6c0.1-1.9,1.1-3.4,2.3-3.3c1.1,0.1,2,1.7,1.9,3.7c-0.1,1.9-1.1,3.4-2.3,3.3
				C248.1,98.2,247.3,96.6,247.4,94.6z"/>
			<path class="st0" d="M256.8,89.4c-1.6-2.2-6,18.5-5.4,20.7c0.3,1,6.3,0.7,6.3,0.7S257.1,89.7,256.8,89.4z"/>
			<path class="st23" d="M256.1,89.9c-1.8,4.6-5,18.1-4.4,19.9c0.2,0.8,4.1,0.7,5.6,0.7c0,0.3,0,0.5,0,0.5s-6.4,0.7-6.7-0.3
				C250,108.7,254.5,90.1,256.1,89.9z"/>
			<path class="st22" d="M260.9,95.5c0.1-1.9,1.1-3.4,2.3-3.4c1.1,0.1,2,1.7,1.9,3.7c-0.1,1.9-1.1,3.4-2.3,3.4
				C261.6,99.1,260.8,97.4,260.9,95.5z"/>
			<path class="st20" d="M258.1,87.7c1.9,2.8,10.5,2,11.2,0.5c0.7-1.6,1.1-3.2-0.7-4c-1.8-0.9-9.8-3.1-11-1.9
				C256.5,83.4,257.2,86.4,258.1,87.7z"/>
			<path class="st20" d="M252.3,87.3c-1.6,2.6-7.8,1.1-8.3-0.6c-0.4-1.7-0.6-3.3,0.7-4.1c1.4-0.7,7.4-2.3,8.2-0.9
				C253.7,83.2,253,86.1,252.3,87.3z"/>
			<path class="st24" d="M247.2,113.7l13.6,1.2c0,0-1.4,7.6-3.7,7.9c-2.4,0.2-7.7-0.9-8.6-2.3C247.5,119.1,247.2,113.7,247.2,113.7z
				"/>
			<path class="st25" d="M248.3,118.3c-0.4-1.9-0.5-4.4-0.5-4.4l12.4,1.1c0,0-0.4,2.4-1.2,4.4L248.3,118.3z"/>
		</g>
	</g>
	<path class="st10" d="M274.8,160.5c0.6,12,1.8,27.2,4.6,33.7c4.7,11.1,22.5,16,28.5,2.8c1,5,0.8,10.2-1,15.6
		c-5.2,15.4-24.4,10.6-29.3-1s-5.1-50.1-5.1-50.1L274.8,160.5z"/>
	<g>
		<path class="st0" d="M288.5,157l-16.9,5.9c1.6,3.3,5,10.8,4.9,13l13-2.5C289.5,173.4,287,163.5,288.5,157z"/>
		<path class="st0" d="M287,163.5c0.5-1.3,1.1-4.8,1.9-7.5c0.9-3,8-10.4,7.5-11.4c-0.8-1.4-2.8-1.9-3.6-1.5
			c-0.8,0.4-6.9,8.2-7.9,7.4c-1.6-1.3-1.8-5.9-2.7-6.4c-1.8-1.2-9.4,5.3-11.3,7.3c-2,2.1-1.2,10.2,3,14.5
			C275.4,167.5,287,163.5,287,163.5z"/>
		<path class="st0" d="M283.9,149.7c-0.7-2.8-1.9-6.4-1.8-7.4c0.1-0.9,0.6-6.3,0.1-6.7s-2.5-1.5-3-0.4s-1.1,7.1-0.8,8.5
			c0.3,1.4,0.9,6.2,1.2,6.6C280,150.6,284.3,151.3,283.9,149.7z"/>
		<path class="st0" d="M278.6,151.9c-1-2.7-2.6-6.3-2.6-7.2c0-1,0-6.4-0.5-6.8c-0.5-0.4-2.7-1.2-3.1,0s-0.4,7.2,0,8.6
			c0.4,1.4,1.5,6.2,1.9,6.5C274.8,153.2,279.2,153.4,278.6,151.9z"/>
		<path class="st0" d="M274.8,158.6c-1.3-2.7-3.2-6.3-3.3-7.3c-0.1-1-0.5-6.6-1.1-7s-2.9-1-3.2,0.2c-0.3,1.3,0.2,7.6,0.7,9
			c0.6,1.4,2.1,6.3,2.5,6.6C270.9,160.4,275.6,160.1,274.8,158.6z"/>
	</g>
	<g>
		<path class="st0" d="M223.2,139l-17.4-2.4c-0.1,3.6-0.5,11.8-1.7,13.7l12.4,3.6C216.5,153.9,218.8,144,223.2,139z"/>
		<path class="st0" d="M218.8,144c1-0.9,3.1-3.8,5.1-5.8c2.2-2.2,11.8-5.7,11.7-6.8c0-1.6-1.6-2.9-2.5-3c-0.9,0-9.7,4.2-10.3,3
			c-0.8-1.9,1.1-6.1,0.6-6.9c-1-1.9-10.7,0.4-13.3,1.4c-2.7,1-5.7,8.6-4,14.2C206.9,142.3,218.8,144,218.8,144z"/>
		<path class="st0" d="M222.4,130.3c0.6-2.8,1.3-6.6,1.8-7.4s3.4-5.3,3.2-5.9c-0.2-0.6-1.5-2.4-2.4-1.6c-1,0.8-4.2,5.8-4.6,7.2
			c-0.4,1.4-2.1,5.9-1.9,6.4C218.6,129.4,222.1,131.9,222.4,130.3z"/>
		<path class="st0" d="M216.8,129.9c0.3-2.9,0.6-6.7,1-7.6s2.9-5.7,2.6-6.3c-0.3-0.6-1.8-2.3-2.7-1.4c-0.9,0.9-3.7,6.3-3.9,7.7
			c-0.3,1.4-1.5,6.2-1.3,6.6C212.9,129.4,216.6,131.6,216.8,129.9z"/>
		<path class="st0" d="M210.9,133.2c-0.1-3-0.4-7-0.1-8s2.1-6.3,1.8-6.9c-0.4-0.6-2.2-2.1-3-1s-2.8,7-2.9,8.6
			c-0.1,1.5-0.6,6.6-0.3,7S211,134.9,210.9,133.2z"/>
	</g>
	<path class="st8" d="M271.3,169l-11.1-1.8c0,0,9.3-3.1,11.2-2.3C273.1,165.7,271.3,169,271.3,169z"/>
</g>
</svg>
